<?xml version="1.0" encoding="UTF-8" standalone="no"?>
<!DOCTYPE svg PUBLIC "-//W3C//DTD SVG 1.1//EN" "http://www.w3.org/Graphics/SVG/1.1/DTD/svg11.dtd">
<!-- Created with Vectornator (http://vectornator.io/) -->
<svg height="36.0px" stroke-miterlimit="10" style="fill-rule:nonzero;clip-rule:evenodd;stroke-linecap:round;stroke-linejoin:round;" version="1.1" viewBox="0 0 115 36" width="115.0px" xml:space="preserve" xmlns="http://www.w3.org/2000/svg" xmlns:xlink="http://www.w3.org/1999/xlink">
<defs/>
<clipPath id="ArtboardFrame">
<rect height="36" width="115" x="0" y="0"/>
</clipPath>
<g clip-path="url(#ArtboardFrame)" id="Layer-4">
<text fill="#f2f2f2" font-family="Helvetica" font-size="9.3" opacity="1" stroke="none" text-anchor="start" transform="matrix(1 0 0 1 0.784054 23.2619)" x="0" y="0">
<tspan textLength="112.69" x="0.232931" y="8.55618"><![CDATA[worldwide disability content]]></tspan>
</text>
<path d="M6.63145 36C6.63145 36 6.66864 36 6.71452 36C6.7604 36 6.79759 36 6.79759 36C6.79759 36 6.7604 36 6.71452 36C6.66864 36 6.63145 36 6.63145 36Z" fill="#000000" fill-rule="nonzero" opacity="1" stroke="#000000" stroke-linecap="butt" stroke-linejoin="round" stroke-opacity="0.00364865" stroke-width="1.5"/>
<g opacity="1">
<path d="M79.0023 23.2619L79.0023 17.3205C79.0023 15.8048 80.231 14.5762 81.7466 14.5762L82.9541 14.5762C83.8029 14.5762 84.4909 15.2642 84.4909 16.113L84.4909 16.113L84.4909 16.113C84.4909 15.2642 83.8029 14.5762 82.9541 14.5762L81.7466 14.5762C80.231 14.5762 79.0023 15.8048 79.0023 17.3205L79.0023 23.2619Z" fill="#ff0300" fill-rule="nonzero" opacity="1" stroke="#f2f2f2" stroke-linecap="butt" stroke-linejoin="round" stroke-width="1.5"/>
<path d="M79.0023 18.963L81.7466 18.963L79.0023 18.963Z" fill="#ff0300" fill-rule="nonzero" opacity="1" stroke="#f2f2f2" stroke-linecap="butt" stroke-linejoin="round" stroke-width="1.5"/>
</g>
<path d="M71.4026 0.952068C67.9386 0.952068 65.1175 3.10937 65.1175 5.77171L65.1147 15.6232C65.1147 18.2855 67.9386 20.4731 71.4026 20.4732C74.8666 20.4732 77.6178 18.2855 77.6178 15.6232L77.6178 5.77171C77.6178 3.10937 74.8666 0.952068 71.4026 0.952068ZM71.3662 2.85278C73.6283 2.85278 75.339 4.25012 75.339 5.94117L75.2299 15.8051C75.2299 17.4961 73.6283 18.5461 71.3662 18.5461C69.1042 18.5461 67.3936 17.8064 67.3936 16.1154L67.5054 5.77171C67.5054 4.08066 69.1042 2.85278 71.3662 2.85278Z" fill="#f2f2f2" fill-rule="nonzero" opacity="1" stroke="#f2f2f2" stroke-linecap="butt" stroke-linejoin="round" stroke-opacity="0" stroke-width="2"/>
<path d="M67.0542 23.2619L75.6782 23.2619L67.0542 23.2619Z" fill="#f2f2f2" fill-rule="nonzero" opacity="1" stroke="#f2f2f2" stroke-linecap="butt" stroke-linejoin="round" stroke-width="1.5"/>
<g opacity="1">
<path d="M93.4822 2.0423C93.4822 2.69718 93.4822 14.269 93.4822 14.269C93.4822 17.6582 96.3061 20.4457 99.7701 20.4457C103.234 20.4457 105.985 17.6582 105.985 14.269C105.985 14.269 105.985 3.44592 105.985 2.42339C105.985 1.40085 105.307 0.94857 104.791 0.952403C104.236 0.956528 103.729 1.40746 103.729 2.21924C103.729 3.03103 103.597 14.6389 103.597 14.6389C103.597 16.7916 101.996 18.5283 99.7338 18.5283C97.4717 18.5283 95.7417 16.7916 95.7417 14.6389C95.7417 14.6389 95.8566 2.69448 95.8566 2.0423C95.8566 1.39012 95.317 0.961349 94.8093 0.952235C94.2475 0.942149 93.4822 1.38741 93.4822 2.0423Z" fill="#f2f2f2" fill-rule="nonzero" opacity="1" stroke="#f2f2f2" stroke-linecap="butt" stroke-linejoin="round" stroke-opacity="0" stroke-width="2"/>
<path d="M112.789 14.2674L110.072 14.2674C110.072 14.2674 107.723 14.13 107.723 16.5208C107.723 18.9115 110.072 18.7412 110.072 18.7412L111.39 18.7412L110.072 18.7412C110.072 18.7412 107.723 18.9115 107.723 16.5208C107.723 14.13 110.072 14.2674 110.072 14.2674L112.789 14.2674Z" fill="#ff0300" fill-rule="nonzero" opacity="1" stroke="#f2f2f2" stroke-linecap="butt" stroke-linejoin="round" stroke-width="1.5"/>
<path d="M93.8132 23.2619L111.083 23.1636C111.083 23.1636 113.033 23.301 113.033 20.9102C113.033 18.5195 111.083 18.6898 111.083 18.6898L109.989 18.6898L111.083 18.6898C111.083 18.6898 113.033 18.5195 113.033 20.9102C113.033 23.301 111.083 23.1636 111.083 23.1636L93.8132 23.2619Z" fill="#ff0300" fill-rule="nonzero" opacity="1" stroke="#f2f2f2" stroke-linecap="butt" stroke-linejoin="round" stroke-width="1.5"/>
</g>
<g opacity="1">
<path d="M39.3224 1.85495L7.32781 1.85495C4.99096 1.85495 1.89465 2.35094 1.89465 7.01351C1.89465 15.5492 11.266 8.08625 11.266 15.6654C11.266 20.8144 4.18968 19.7769 2.3352 19.4166C2.05555 19.3623 1.89465 19.3233 1.89465 19.3233C1.89465 19.3233 11.266 21.5909 11.266 15.6654C11.266 8.04728 1.89465 15.5492 1.89465 7.01351C1.89465 2.51296 4.99096 1.85495 7.32781 1.85495L39.3224 1.85495Z" fill="#ff0300" fill-rule="nonzero" opacity="1" stroke="#f2f2f2" stroke-linecap="butt" stroke-linejoin="round" stroke-width="2"/>
<path d="M15.334 5.44447L15.334 19.561L15.334 5.44447Z" fill="#ff0300" fill-rule="nonzero" opacity="1" stroke="#f2f2f2" stroke-linecap="butt" stroke-linejoin="round" stroke-width="1.5"/>
<path d="M7.44264 7.41104L36.5336 7.41104L7.44264 7.41104Z" fill="#ff0300" fill-rule="nonzero" opacity="1" stroke="#f2f2f2" stroke-linecap="butt" stroke-linejoin="round" stroke-width="1.5"/>
<path d="M27.3854 19.561L27.3854 16.7772C27.3854 15.3442 28.5471 14.1825 29.9801 14.1825L30.9101 14.1825C31.8294 14.1825 32.5747 14.9278 32.5747 15.8472L32.5747 15.8472L32.5747 15.8472C32.5747 14.9278 31.8294 14.1825 30.9101 14.1825L29.9801 14.1825C28.5471 14.1825 27.3854 15.3442 27.3854 16.7772L27.3854 19.561Z" fill="#ff0300" fill-rule="nonzero" opacity="1" stroke="#f2f2f2" stroke-linecap="butt" stroke-linejoin="round" stroke-width="1.5"/>
<path d="M36.5336 19.561C36.5336 19.561 36.5336 14.1825 36.5336 14.1825C36.5336 14.1825 36.5336 19.561 36.5336 19.561Z" fill="#ff0300" fill-rule="nonzero" opacity="1" stroke="#f2f2f2" stroke-linecap="butt" stroke-linejoin="round" stroke-width="1.5"/>
<path d="M21.6469 13.5365C19.7422 13.5365 18.1877 14.8844 18.1877 16.5826L18.1877 17.268C18.1877 18.9662 19.7422 20.3522 21.6469 20.3523C23.5516 20.3523 25.1061 18.9662 25.1061 17.268L25.1061 16.5826C25.1061 14.8844 23.5516 13.5365 21.6469 13.5365ZM21.6469 14.8311C22.8179 14.8311 23.7822 15.6908 23.7822 16.7349L23.7822 17.1538C23.7822 18.1979 22.8179 19.0576 21.6469 19.0576C20.4759 19.0576 19.5116 18.1979 19.5116 17.1538L19.5116 16.7349C19.5116 15.6908 20.4759 14.8311 21.6469 14.8311Z" fill="#f2f2f2" fill-rule="nonzero" opacity="1" stroke="#f2f2f2" stroke-linecap="butt" stroke-linejoin="round" stroke-opacity="0" stroke-width="1.5"/>
<path d="M54.0659 14.465C54.0659 14.465 51.3639 14.465 51.3639 14.465C51.3639 14.465 49.0282 14.3292 49.0282 16.6928C49.0282 19.0565 51.3639 18.8881 51.3639 18.8881L52.6741 18.8881L51.3639 18.8881C51.3639 18.8881 49.0282 19.0565 49.0282 16.6928C49.0282 14.3292 51.3639 14.465 51.3639 14.465C51.3639 14.465 54.0659 14.465 54.0659 14.465Z" fill="#ff0300" fill-rule="nonzero" opacity="1" stroke="#f2f2f2" stroke-linecap="butt" stroke-linejoin="round" stroke-width="1.5"/>
<path d="M1.4734 23.0841C1.4734 23.0841 52.2675 23.2604 52.2675 23.2604C52.2675 23.2604 54.3083 23.3962 54.3083 21.0326C54.3083 18.6689 52.2675 18.8373 52.2675 18.8373L51.1226 18.8373L52.2675 18.8373C52.2675 18.8373 54.3083 18.6689 54.3083 21.0326C54.3083 23.3962 52.2675 23.2604 52.2675 23.2604C52.2675 23.2604 1.4734 23.0841 1.4734 23.0841Z" fill="#ff0300" fill-rule="nonzero" opacity="1" stroke="#f2f2f2" stroke-linecap="butt" stroke-linejoin="round" stroke-width="1.5"/>
<path d="M43.2105 13.4634C41.3058 13.4634 39.7628 14.8357 39.7628 16.534L39.7628 17.2095C39.7628 18.9077 41.3058 20.28 43.2105 20.28C44.6696 20.28 45.8835 19.4581 46.3864 18.3147C46.439 18.1953 46.1616 17.9526 45.7302 17.9464C45.2989 17.9402 44.856 18.1003 44.6609 18.2898C44.3476 18.5941 43.8222 18.9904 43.2105 18.9904C42.0668 18.9904 41.1509 18.1591 41.1074 17.1481L45.7916 17.1203C45.7916 17.1203 46.274 17.1635 46.4993 17.0169C46.7246 16.8703 46.6927 16.534 46.6927 16.534C46.6927 14.8357 45.1152 13.4635 43.2105 13.4634ZM43.2105 14.7531C44.0666 14.7531 44.6642 15.2955 45.0033 15.9506L41.4177 15.9813C41.7488 15.3091 42.3405 14.7531 43.2105 14.7531Z" fill="#f2f2f2" fill-rule="nonzero" opacity="1" stroke="#f2f2f2" stroke-linecap="butt" stroke-linejoin="round" stroke-opacity="0" stroke-width="1.5"/>
<path d="M36.5122 11.6167L36.5336 11.5995L36.5122 11.6167Z" fill="none" opacity="1" stroke="#f2f2f2" stroke-linecap="butt" stroke-linejoin="round" stroke-width="1.4"/>
<path d="M36.5122 11.6167L36.5336 11.5995L36.5122 11.6167Z" fill="none" opacity="1" stroke="#f2f2f2" stroke-linecap="butt" stroke-linejoin="round" stroke-width="1.4"/>
<path d="M36.5122 11.6167L36.5336 11.5995L36.5122 11.6167Z" fill="none" opacity="1" stroke="#f2f2f2" stroke-linecap="butt" stroke-linejoin="round" stroke-width="1.4"/>
<path d="M36.5122 11.6167L36.5336 11.5995L36.5122 11.6167Z" fill="none" opacity="1" stroke="#f2f2f2" stroke-linecap="butt" stroke-linejoin="round" stroke-width="1.4"/>
<path d="M36.5122 11.6167L36.5336 11.5995L36.5122 11.6167Z" fill="none" opacity="1" stroke="#f2f2f2" stroke-linecap="butt" stroke-linejoin="round" stroke-width="1.4"/>
<path d="M36.5122 11.6167L36.5336 11.5995L36.5122 11.6167Z" fill="none" opacity="1" stroke="#f2f2f2" stroke-linecap="butt" stroke-linejoin="round" stroke-width="1.4"/>
<path d="M36.5122 11.6167L36.5336 11.5995L36.5122 11.6167Z" fill="none" opacity="1" stroke="#f2f2f2" stroke-linecap="butt" stroke-linejoin="round" stroke-width="1.4"/>
<path d="M36.5122 11.6167L36.5336 11.5995L36.5122 11.6167Z" fill="none" opacity="1" stroke="#f2f2f2" stroke-linecap="butt" stroke-linejoin="round" stroke-width="1.4"/>
<path d="M36.5122 11.6167L36.5336 11.5995L36.5122 11.6167Z" fill="none" opacity="1" stroke="#f2f2f2" stroke-linecap="butt" stroke-linejoin="round" stroke-width="1.4"/>
<path d="M36.5122 11.6167L36.5336 11.5995L36.5122 11.6167Z" fill="none" opacity="1" stroke="#f2f2f2" stroke-linecap="butt" stroke-linejoin="round" stroke-width="1.4"/>
<path d="M36.5122 11.6167L36.5336 11.5995L36.5122 11.6167Z" fill="none" opacity="1" stroke="#f2f2f2" stroke-linecap="butt" stroke-linejoin="round" stroke-width="1.4"/>
<path d="M36.5122 11.6167L36.5336 11.5995L36.5122 11.6167Z" fill="none" opacity="1" stroke="#f2f2f2" stroke-linecap="butt" stroke-linejoin="round" stroke-width="1.4"/>
<path d="M36.5122 11.6167L36.5336 11.5995L36.5122 11.6167Z" fill="none" opacity="1" stroke="#f2f2f2" stroke-linecap="butt" stroke-linejoin="round" stroke-width="1.4"/>
<path d="M36.5122 11.6167L36.5336 11.5995L36.5122 11.6167Z" fill="none" opacity="1" stroke="#f2f2f2" stroke-linecap="butt" stroke-linejoin="round" stroke-width="1.4"/>
<path d="M36.5122 11.6167L36.5336 11.5995L36.5122 11.6167Z" fill="none" opacity="1" stroke="#f2f2f2" stroke-linecap="butt" stroke-linejoin="round" stroke-width="1.4"/>
<path d="M36.5122 11.6167L36.5336 11.5995L36.5122 11.6167Z" fill="none" opacity="1" stroke="#f2f2f2" stroke-linecap="butt" stroke-linejoin="round" stroke-width="1.4"/>
<path d="M36.5122 11.6167L36.5336 11.5995L36.5122 11.6167Z" fill="none" opacity="1" stroke="#f2f2f2" stroke-linecap="butt" stroke-linejoin="round" stroke-width="1.4"/>
<path d="M36.5122 11.6167L36.5336 11.5995L36.5122 11.6167Z" fill="none" opacity="1" stroke="#f2f2f2" stroke-linecap="butt" stroke-linejoin="round" stroke-width="1.4"/>
<path d="M36.5122 11.6167L36.5336 11.5995L36.5122 11.6167Z" fill="none" opacity="1" stroke="#f2f2f2" stroke-linecap="butt" stroke-linejoin="round" stroke-width="1.4"/>
<path d="M36.5122 11.6167L36.5336 11.5995L36.5122 11.6167Z" fill="none" opacity="1" stroke="#f2f2f2" stroke-linecap="butt" stroke-linejoin="round" stroke-width="1.4"/>
<path d="M36.5122 11.6167L36.5336 11.5995L36.5122 11.6167Z" fill="none" opacity="1" stroke="#f2f2f2" stroke-linecap="butt" stroke-linejoin="round" stroke-width="1.4"/>
<path d="M36.5122 11.6167L36.5336 11.5995L36.5122 11.6167Z" fill="none" opacity="1" stroke="#f2f2f2" stroke-linecap="butt" stroke-linejoin="round" stroke-width="1.4"/>
<path d="M36.5122 11.6167L36.5336 11.5995L36.5122 11.6167Z" fill="none" opacity="1" stroke="#f2f2f2" stroke-linecap="butt" stroke-linejoin="round" stroke-width="1.4"/>
<path d="M36.5122 11.6167L36.5336 11.5995L36.5122 11.6167Z" fill="none" opacity="1" stroke="#f2f2f2" stroke-linecap="butt" stroke-linejoin="round" stroke-width="1.4"/>
<path d="M36.5122 11.6167L36.5336 11.5995L36.5122 11.6167Z" fill="none" opacity="1" stroke="#f2f2f2" stroke-linecap="butt" stroke-linejoin="round" stroke-width="1.4"/>
<path d="M36.5122 11.6167L36.5336 11.5995L36.5122 11.6167Z" fill="none" opacity="1" stroke="#f2f2f2" stroke-linecap="butt" stroke-linejoin="round" stroke-width="1.4"/>
<path d="M36.5122 11.6167L36.5336 11.5995L36.5122 11.6167Z" fill="none" opacity="1" stroke="#f2f2f2" stroke-linecap="butt" stroke-linejoin="round" stroke-width="1.4"/>
<path d="M36.5122 11.6167L36.5336 11.5995L36.5122 11.6167Z" fill="none" opacity="1" stroke="#f2f2f2" stroke-linecap="butt" stroke-linejoin="round" stroke-width="1.4"/>
<path d="M36.5122 11.6167L36.5336 11.5995L36.5122 11.6167Z" fill="none" opacity="1" stroke="#f2f2f2" stroke-linecap="butt" stroke-linejoin="round" stroke-width="1.4"/>
<path d="M36.5122 11.6167L36.5336 11.5995L36.5122 11.6167Z" fill="none" opacity="1" stroke="#f2f2f2" stroke-linecap="butt" stroke-linejoin="round" stroke-width="1.4"/>
<path d="M36.5122 11.6167L36.5336 11.5995L36.5122 11.6167Z" fill="none" opacity="1" stroke="#f2f2f2" stroke-linecap="butt" stroke-linejoin="round" stroke-width="1.4"/>
</g>
<g opacity="1">
<path d="M46.5497 2.65674C46.5497 2.65674 46.6876 2.70494 46.9191 2.79949C47.7422 3.13574 49.7485 4.05821 50.9432 5.4837C52.0635 6.82026 52.4703 8.59904 52.6079 9.45695C52.6583 9.77131 52.6726 9.96202 52.6726 9.96202C52.6726 9.96202 52.474 7.31002 50.9432 5.4837C49.4125 3.65738 46.5497 2.65674 46.5497 2.65674Z" fill="#ff0300" fill-rule="nonzero" opacity="1" stroke="#f2f2f2" stroke-linecap="butt" stroke-linejoin="round" stroke-width="2"/>
<path d="M44.7857 5.49523C44.7857 5.49523 44.8844 5.53028 45.0503 5.59889C45.6402 5.8429 47.0797 6.51132 47.9507 7.53668C48.7674 8.49807 49.0843 9.77325 49.1955 10.388C49.2363 10.6133 49.2494 10.7499 49.2494 10.7499C49.2494 10.7499 49.0666 8.85035 47.9507 7.53668C46.8348 6.22301 44.7857 5.49523 44.7857 5.49523Z" fill="#ff0300" fill-rule="nonzero" opacity="1" stroke="#f2f2f2" stroke-linecap="butt" stroke-linejoin="round" stroke-width="1.8"/>
<path d="M43.1056 8.21366C43.1056 8.21366 43.1691 8.23935 43.2762 8.28882C43.657 8.46473 44.5884 8.94132 45.1713 9.63235C45.7178 10.2803 45.9097 10.9638 45.9991 11.3658C46.0319 11.5131 45.9991 11.5472 45.9991 11.5472C45.9991 11.5472 45.9181 10.5177 45.1713 9.63235C44.4245 8.74702 43.1056 8.21366 43.1056 8.21366Z" fill="#ff0300" fill-rule="nonzero" opacity="1" stroke="#f2f2f2" stroke-linecap="butt" stroke-linejoin="round" stroke-width="1.5"/>
<path d="M42.3806 11.5222L42.4181 11.5009L42.3806 11.5222Z" fill="none" opacity="1" stroke="#f2f2f2" stroke-linecap="butt" stroke-linejoin="round" stroke-width="1.4"/>
</g>
<path d="M1.4734 34.9811L113.365 34.9811L1.4734 34.9811Z" fill="none" opacity="1" stroke="#f2f2f2" stroke-linecap="butt" stroke-linejoin="round" stroke-width="1.5"/>
</g>
</svg>
