<?xml version="1.0" encoding="UTF-8" standalone="no"?>
<!DOCTYPE svg PUBLIC "-//W3C//DTD SVG 1.1//EN"
  "http://www.w3.org/Graphics/SVG/1.1/DTD/svg11.dtd">
<!-- Created with Vectornator (http://vectornator.io/) -->
<svg version="1.1"
     viewBox="0 0 98 36"
     xmlns="http://www.w3.org/2000/svg"
     xmlns:xlink="http://www.w3.org/1999/xlink"
     xml:space="preserve"
     style="fill-rule:nonzero;clip-rule:evenodd;stroke-linecap:round;stroke-linejoin:round">

  <defs>
    <clipPath id="ArtboardFrame">
      <rect x="0" y="0" width="98" height="36"/>
    </clipPath>
  </defs>

  <!-- Keep ALL your <path> elements inside this single group -->
  <g id="Layer-4" clip-path="url(#ArtboardFrame)" opacity="1">

<path d="M6.63145 36C6.63145 36 6.66864 36 6.71452 36C6.7604 36 6.79759 36 6.79759 36C6.79759 36 6.7604 36 6.71452 36C6.66864 36 6.63145 36 6.63145 36Z" fill="#000000" fill-rule="nonzero" opacity="1" stroke="#000000" stroke-linecap="butt" stroke-linejoin="round" stroke-opacity="0.00364865" stroke-width="1.5"/>
<path d="M38.6715 2.48086L7.97539 2.48086C5.73339 2.48086 2.76274 2.98565 2.76274 7.73093C2.76274 16.418 11.7537 8.82271 11.7537 16.5363C11.7537 21.7767 4.96462 20.7208 3.18541 20.3541C2.91711 20.2988 2.76274 20.2591 2.76274 20.2591C2.76274 20.2591 11.7537 22.5669 11.7537 16.5363C11.7537 8.78304 2.76274 16.418 2.76274 7.73093C2.76274 3.15054 5.73339 2.48086 7.97539 2.48086L38.6715 2.48086Z" fill="#ff0300" fill-rule="nonzero" opacity="1" stroke="#f2f2f2" stroke-linecap="butt" stroke-linejoin="round" stroke-width="2"/>
<path d="M15.6566 6.13406L15.6566 20.501L15.6566 6.13406Z" fill="#ff0300" fill-rule="nonzero" opacity="1" stroke="#f2f2f2" stroke-linecap="butt" stroke-linejoin="round" stroke-width="1.5"/>
<path d="M8.08557 8.13551L35.9958 8.13551L8.08557 8.13551Z" fill="#ff0300" fill-rule="nonzero" opacity="1" stroke="#f2f2f2" stroke-linecap="butt" stroke-linejoin="round" stroke-width="1.5"/>
<path d="M27.2189 20.501L27.2189 17.5165C27.2189 16.1416 28.3335 15.0271 29.7083 15.0271L30.5034 15.0271C31.4391 15.0271 32.1976 15.7856 32.1976 16.7213L32.1976 16.7213L32.1976 16.7213C32.1976 15.7856 31.4391 15.0271 30.5034 15.0271L29.7083 15.0271C28.3335 15.0271 27.2189 16.1416 27.2189 17.5165L27.2189 20.501Z" fill="#ff0300" fill-rule="nonzero" opacity="1" stroke="#f2f2f2" stroke-linecap="butt" stroke-linejoin="round" stroke-width="1.5"/>
<path d="M35.9958 20.501C35.9958 20.501 35.9958 15.0271 35.9958 15.0271C35.9958 15.0271 35.9958 20.501 35.9958 20.501Z" fill="#ff0300" fill-rule="nonzero" opacity="1" stroke="#f2f2f2" stroke-linecap="butt" stroke-linejoin="round" stroke-width="1.5"/>
<path d="M21.7133 14.3696C19.886 14.3696 18.3945 15.7414 18.3945 17.4698L18.3945 18.1673C18.3945 19.8957 19.886 21.3063 21.7133 21.3063C23.5407 21.3063 25.0321 19.8957 25.0321 18.1673L25.0321 17.4698C25.0321 15.7414 23.5407 14.3696 21.7133 14.3696ZM21.7133 15.6872C22.8368 15.6872 23.762 16.5622 23.762 17.6248L23.762 18.0511C23.762 19.1137 22.8368 19.9887 21.7133 19.9887C20.5898 19.9887 19.6647 19.1137 19.6647 18.0511L19.6647 17.6248C19.6647 16.5622 20.5898 15.6872 21.7133 15.6872Z" fill="#f2f2f2" fill-rule="nonzero" opacity="1" stroke="#f2f2f2" stroke-linecap="butt" stroke-linejoin="round" stroke-opacity="0" stroke-width="1.5"/>
<path d="M77.6597 2.9685C77.6597 3.64441 77.6597 15.5877 77.6597 15.5877C77.6597 19.0857 80.2296 21.9627 83.3821 21.9627C86.5345 21.9627 89.0383 19.0857 89.0383 15.5877C89.0383 15.5877 89.0383 4.41719 89.0383 3.36183C89.0383 2.30646 88.4211 1.83966 87.9517 1.84362C87.4466 1.84787 86.9847 2.31328 86.9847 3.15113C86.9847 3.98897 86.8652 15.9695 86.8652 15.9695C86.8652 18.1914 85.4076 19.9837 83.349 19.9837C81.2904 19.9837 79.7159 18.1914 79.7159 15.9695C79.7159 15.9695 79.8205 3.64162 79.8205 2.9685C79.8205 2.29538 79.3294 1.85285 78.8674 1.84344C78.3561 1.83303 77.6597 2.29259 77.6597 2.9685Z" fill="#f2f2f2" fill-rule="nonzero" opacity="1" stroke="#f2f2f2" stroke-linecap="butt" stroke-linejoin="round" stroke-opacity="0" stroke-width="2"/>
<g opacity="1">
<path d="M70.0297 24.2035L70.0297 17.7041C70.0297 16.3482 71.1289 15.2491 72.4848 15.2491L73.3554 15.2491C74.2304 15.2491 74.9398 15.9585 74.9398 16.8335L74.9398 16.8335L74.9398 16.8335C74.9398 15.9585 74.2304 15.2491 73.3554 15.2491L72.4848 15.2491C71.1289 15.2491 70.0297 16.3482 70.0297 17.7041L70.0297 24.2035Z" fill="#ff0300" fill-rule="nonzero" opacity="1" stroke="#f2f2f2" stroke-linecap="butt" stroke-linejoin="round" stroke-width="1.5"/>
<path d="M70.0297 19.7717L72.4848 19.7717L70.0297 19.7717Z" fill="#ff0300" fill-rule="nonzero" opacity="1" stroke="#f2f2f2" stroke-linecap="butt" stroke-linejoin="round" stroke-width="1.5"/>
</g>
<path d="M62.4843 1.26753C59.3318 1.26753 56.7645 3.49157 56.7645 6.23628L56.7619 16.3925C56.7619 19.1372 59.3318 21.3925 62.4843 21.3925C65.6368 21.3925 68.1406 19.1372 68.1406 16.3925L68.1406 6.23628C68.1406 3.49157 65.6368 1.26753 62.4843 1.26753ZM62.4512 3.22704C64.5098 3.22704 66.0667 4.66761 66.0667 6.41098L65.9674 16.58C65.9674 18.3234 64.5098 19.4059 62.4512 19.4059C60.3926 19.4059 58.8358 18.6433 58.8358 16.9L58.9376 6.23628C58.9376 4.49291 60.3926 3.22704 62.4512 3.22704Z" fill="#f2f2f2" fill-rule="nonzero" opacity="1" stroke="#f2f2f2" stroke-linecap="butt" stroke-linejoin="round" stroke-opacity="0" stroke-width="2"/>
<path d="M58.527 24.2675L66.3754 24.2675L58.527 24.2675Z" fill="#f2f2f2" fill-rule="nonzero" opacity="1" stroke="#f2f2f2" stroke-linecap="butt" stroke-linejoin="round" stroke-width="1.5"/>
<path d="M95.3989 15.2269L92.8588 15.2269C92.8588 15.2269 90.6631 15.0888 90.6631 17.4918C90.6631 19.8948 92.8588 19.7237 92.8588 19.7237L94.0905 19.7237L92.8588 19.7237C92.8588 19.7237 90.6631 19.8948 90.6631 17.4918C90.6631 15.0888 92.8588 15.2269 92.8588 15.2269L95.3989 15.2269Z" fill="#ff0300" fill-rule="nonzero" opacity="1" stroke="#f2f2f2" stroke-linecap="butt" stroke-linejoin="round" stroke-width="1.5"/>
<path d="M73.9887 24.2675L93.4311 24.1688C93.4311 24.1688 95.6267 24.3068 95.6267 21.9038C95.6267 19.5008 93.4311 19.672 93.4311 19.672L92.1994 19.672L93.4311 19.672C93.4311 19.672 95.6267 19.5008 95.6267 21.9038C95.6267 24.3068 93.4311 24.1688 93.4311 24.1688L73.9887 24.2675Z" fill="#ff0300" fill-rule="nonzero" opacity="1" stroke="#f2f2f2" stroke-linecap="butt" stroke-linejoin="round" stroke-width="1.5"/>
<path d="M52.8166 15.3146C52.8166 15.3146 50.2242 15.3146 50.2242 15.3146C50.2242 15.3146 47.9833 15.1764 47.9833 17.5819C47.9833 19.9875 50.2242 19.8162 50.2242 19.8162L51.4812 19.8162L50.2242 19.8162C50.2242 19.8162 47.9833 19.9875 47.9833 17.5819C47.9833 15.1764 50.2242 15.3146 50.2242 15.3146C50.2242 15.3146 52.8166 15.3146 52.8166 15.3146Z" fill="#ff0300" fill-rule="nonzero" opacity="1" stroke="#f2f2f2" stroke-linecap="butt" stroke-linejoin="round" stroke-width="1.5"/>
<path d="M2.35859 24.0866C2.35859 24.0866 51.0911 24.2661 51.0911 24.2661C51.0911 24.2661 53.0491 24.4043 53.0491 21.9987C53.0491 19.5931 51.0911 19.7645 51.0911 19.7645L49.9928 19.7645L51.0911 19.7645C51.0911 19.7645 53.0491 19.5931 53.0491 21.9987C53.0491 24.4043 51.0911 24.2661 51.0911 24.2661C51.0911 24.2661 2.35859 24.0866 2.35859 24.0866Z" fill="#ff0300" fill-rule="nonzero" opacity="1" stroke="#f2f2f2" stroke-linecap="butt" stroke-linejoin="round" stroke-width="1.5"/>
<path d="M42.4018 14.2953C40.5744 14.2953 39.094 15.6919 39.094 17.4203L39.094 18.1078C39.094 19.8361 40.5744 21.2328 42.4018 21.2328C43.8016 21.2328 44.9662 20.3962 45.4488 19.2326C45.4992 19.1111 45.2331 18.8641 44.8192 18.8578C44.4053 18.8515 43.9805 19.0144 43.7933 19.2073C43.4927 19.517 42.9887 19.9203 42.4018 19.9203C41.3044 19.9203 40.4257 19.0742 40.384 18.0453L44.8781 18.017C44.8781 18.017 45.3409 18.061 45.5571 17.9118C45.7732 17.7626 45.7426 17.4203 45.7426 17.4203C45.7426 15.6919 44.2292 14.2953 42.4018 14.2953ZM42.4018 15.6078C43.2231 15.6078 43.7964 16.1599 44.1218 16.8265L40.6817 16.8578C40.9994 16.1737 41.567 15.6078 42.4018 15.6078Z" fill="#f2f2f2" fill-rule="nonzero" opacity="1" stroke="#f2f2f2" stroke-linecap="butt" stroke-linejoin="round" stroke-opacity="0" stroke-width="1.5"/>
<path d="M35.9753 12.4157L35.9958 12.3982L35.9753 12.4157Z" fill="none" opacity="1" stroke="#f2f2f2" stroke-linecap="butt" stroke-linejoin="round" stroke-width="1.4"/>
<path d="M35.9753 12.4157L35.9958 12.3982L35.9753 12.4157Z" fill="none" opacity="1" stroke="#f2f2f2" stroke-linecap="butt" stroke-linejoin="round" stroke-width="1.4"/>
<path d="M35.9753 12.4157L35.9958 12.3982L35.9753 12.4157Z" fill="none" opacity="1" stroke="#f2f2f2" stroke-linecap="butt" stroke-linejoin="round" stroke-width="1.4"/>
<path d="M35.9753 12.4157L35.9958 12.3982L35.9753 12.4157Z" fill="none" opacity="1" stroke="#f2f2f2" stroke-linecap="butt" stroke-linejoin="round" stroke-width="1.4"/>
<path d="M35.9753 12.4157L35.9958 12.3982L35.9753 12.4157Z" fill="none" opacity="1" stroke="#f2f2f2" stroke-linecap="butt" stroke-linejoin="round" stroke-width="1.4"/>
<path d="M35.9753 12.4157L35.9958 12.3982L35.9753 12.4157Z" fill="none" opacity="1" stroke="#f2f2f2" stroke-linecap="butt" stroke-linejoin="round" stroke-width="1.4"/>
<path d="M35.9753 12.4157L35.9958 12.3982L35.9753 12.4157Z" fill="none" opacity="1" stroke="#f2f2f2" stroke-linecap="butt" stroke-linejoin="round" stroke-width="1.4"/>
<path d="M35.9753 12.4157L35.9958 12.3982L35.9753 12.4157Z" fill="none" opacity="1" stroke="#f2f2f2" stroke-linecap="butt" stroke-linejoin="round" stroke-width="1.4"/>
<path d="M35.9753 12.4157L35.9958 12.3982L35.9753 12.4157Z" fill="none" opacity="1" stroke="#f2f2f2" stroke-linecap="butt" stroke-linejoin="round" stroke-width="1.4"/>
<path d="M35.9753 12.4157L35.9958 12.3982L35.9753 12.4157Z" fill="none" opacity="1" stroke="#f2f2f2" stroke-linecap="butt" stroke-linejoin="round" stroke-width="1.4"/>
<path d="M35.9753 12.4157L35.9958 12.3982L35.9753 12.4157Z" fill="none" opacity="1" stroke="#f2f2f2" stroke-linecap="butt" stroke-linejoin="round" stroke-width="1.4"/>
<path d="M35.9753 12.4157L35.9958 12.3982L35.9753 12.4157Z" fill="none" opacity="1" stroke="#f2f2f2" stroke-linecap="butt" stroke-linejoin="round" stroke-width="1.4"/>
<path d="M35.9753 12.4157L35.9958 12.3982L35.9753 12.4157Z" fill="none" opacity="1" stroke="#f2f2f2" stroke-linecap="butt" stroke-linejoin="round" stroke-width="1.4"/>
<path d="M35.9753 12.4157L35.9958 12.3982L35.9753 12.4157Z" fill="none" opacity="1" stroke="#f2f2f2" stroke-linecap="butt" stroke-linejoin="round" stroke-width="1.4"/>
<path d="M35.9753 12.4157L35.9958 12.3982L35.9753 12.4157Z" fill="none" opacity="1" stroke="#f2f2f2" stroke-linecap="butt" stroke-linejoin="round" stroke-width="1.4"/>
<path d="M35.9753 12.4157L35.9958 12.3982L35.9753 12.4157Z" fill="none" opacity="1" stroke="#f2f2f2" stroke-linecap="butt" stroke-linejoin="round" stroke-width="1.4"/>
<path d="M35.9753 12.4157L35.9958 12.3982L35.9753 12.4157Z" fill="none" opacity="1" stroke="#f2f2f2" stroke-linecap="butt" stroke-linejoin="round" stroke-width="1.4"/>
<path d="M35.9753 12.4157L35.9958 12.3982L35.9753 12.4157Z" fill="none" opacity="1" stroke="#f2f2f2" stroke-linecap="butt" stroke-linejoin="round" stroke-width="1.4"/>
<path d="M35.9753 12.4157L35.9958 12.3982L35.9753 12.4157Z" fill="none" opacity="1" stroke="#f2f2f2" stroke-linecap="butt" stroke-linejoin="round" stroke-width="1.4"/>
<path d="M35.9753 12.4157L35.9958 12.3982L35.9753 12.4157Z" fill="none" opacity="1" stroke="#f2f2f2" stroke-linecap="butt" stroke-linejoin="round" stroke-width="1.4"/>
<path d="M35.9753 12.4157L35.9958 12.3982L35.9753 12.4157Z" fill="none" opacity="1" stroke="#f2f2f2" stroke-linecap="butt" stroke-linejoin="round" stroke-width="1.4"/>
<path d="M35.9753 12.4157L35.9958 12.3982L35.9753 12.4157Z" fill="none" opacity="1" stroke="#f2f2f2" stroke-linecap="butt" stroke-linejoin="round" stroke-width="1.4"/>
<path d="M35.9753 12.4157L35.9958 12.3982L35.9753 12.4157Z" fill="none" opacity="1" stroke="#f2f2f2" stroke-linecap="butt" stroke-linejoin="round" stroke-width="1.4"/>
<path d="M35.9753 12.4157L35.9958 12.3982L35.9753 12.4157Z" fill="none" opacity="1" stroke="#f2f2f2" stroke-linecap="butt" stroke-linejoin="round" stroke-width="1.4"/>
<path d="M35.9753 12.4157L35.9958 12.3982L35.9753 12.4157Z" fill="none" opacity="1" stroke="#f2f2f2" stroke-linecap="butt" stroke-linejoin="round" stroke-width="1.4"/>
<path d="M35.9753 12.4157L35.9958 12.3982L35.9753 12.4157Z" fill="none" opacity="1" stroke="#f2f2f2" stroke-linecap="butt" stroke-linejoin="round" stroke-width="1.4"/>
<path d="M35.9753 12.4157L35.9958 12.3982L35.9753 12.4157Z" fill="none" opacity="1" stroke="#f2f2f2" stroke-linecap="butt" stroke-linejoin="round" stroke-width="1.4"/>
<path d="M35.9753 12.4157L35.9958 12.3982L35.9753 12.4157Z" fill="none" opacity="1" stroke="#f2f2f2" stroke-linecap="butt" stroke-linejoin="round" stroke-width="1.4"/>
<path d="M35.9753 12.4157L35.9958 12.3982L35.9753 12.4157Z" fill="none" opacity="1" stroke="#f2f2f2" stroke-linecap="butt" stroke-linejoin="round" stroke-width="1.4"/>
<path d="M35.9753 12.4157L35.9958 12.3982L35.9753 12.4157Z" fill="none" opacity="1" stroke="#f2f2f2" stroke-linecap="butt" stroke-linejoin="round" stroke-width="1.4"/>
<path d="M35.9753 12.4157L35.9958 12.3982L35.9753 12.4157Z" fill="none" opacity="1" stroke="#f2f2f2" stroke-linecap="butt" stroke-linejoin="round" stroke-width="1.4"/>
<g opacity="1">
<path d="M43.432 2.56048C43.432 2.56048 43.572 2.56775 43.8106 2.59328C44.6594 2.68407 46.7562 3.00578 48.243 4.0525C49.6371 5.03392 50.495 6.65272 50.8549 7.45036C50.9868 7.74263 51.0518 7.92465 51.0518 7.92465C51.0518 7.92465 50.148 5.39354 48.243 4.0525C46.3381 2.71146 43.432 2.56048 43.432 2.56048Z" fill="#ff0300" fill-rule="nonzero" opacity="1" stroke="#f2f2f2" stroke-linecap="butt" stroke-linejoin="round" stroke-width="1.65"/>
<path d="M42.5807 5.83965C42.5807 5.83965 42.6811 5.84539 42.8523 5.86452C43.4614 5.93255 44.9676 6.16977 46.0478 6.91933C47.0606 7.62213 47.6989 8.77532 47.9684 9.34328C48.0671 9.55139 48.1164 9.68093 48.1164 9.68093C48.1164 9.68093 47.4317 7.87965 46.0478 6.91933C44.6639 5.95901 42.5807 5.83965 42.5807 5.83965Z" fill="#ff0300" fill-rule="nonzero" opacity="1" stroke="#f2f2f2" stroke-linecap="butt" stroke-linejoin="round" stroke-width="1.65"/>
<path d="M41.7124 9.07781C41.7124 9.07781 41.78 9.08479 41.8957 9.10277C42.3073 9.16671 43.327 9.36982 44.0754 9.89315C44.7772 10.3838 45.1517 11.0162 45.3497 11.395C45.4223 11.5339 45.4714 11.673 45.4714 11.673C45.4714 11.673 45.0343 10.5636 44.0754 9.89315C43.1165 9.22267 41.7124 9.07781 41.7124 9.07781Z" fill="#ff0300" fill-rule="nonzero" opacity="1" stroke="#f2f2f2" stroke-linecap="butt" stroke-linejoin="round" stroke-width="1.65"/>
<path d="M42.0064 12.4157L42.0352 12.3841L42.0064 12.4157Z" fill="none" opacity="1" stroke="#f2f2f2" stroke-linecap="butt" stroke-linejoin="round" stroke-width="1.4"/>
</g>
<g fill="#f2f2f2" opacity="1" stroke="none">
<path d="M2.59504 27.2985L3.37905 30.5106L4.17448 27.2985L4.94326 27.2985L5.7425 30.4916L6.57598 27.2985L7.26104 27.2985L6.07741 31.3745L5.36572 31.3745L4.53604 28.2195L3.733 31.3745L3.0213 31.3745L1.84529 27.2985L2.59504 27.2985Z"/>
<path d="M9.52553 30.9331C9.9797 30.9331 10.2911 30.7612 10.4599 30.4174C10.6286 30.0736 10.713 29.6911 10.713 29.2699C10.713 28.8893 10.6521 28.5798 10.5303 28.3413C10.3374 27.9658 10.0051 27.778 9.53314 27.778C9.1145 27.778 8.81003 27.9378 8.61973 28.2575C8.42944 28.5772 8.33429 28.9629 8.33429 29.4145C8.33429 29.8484 8.42944 30.2099 8.61973 30.4992C8.81003 30.7884 9.11196 30.9331 9.52553 30.9331ZM9.55217 27.1805C10.0774 27.1805 10.5214 27.3555 10.8842 27.7057C11.2471 28.0558 11.4285 28.5709 11.4285 29.2509C11.4285 29.908 11.2686 30.451 10.9489 30.8798C10.6292 31.3086 10.1332 31.523 9.46083 31.523C8.9001 31.523 8.45481 31.3333 8.12497 30.954C7.79513 30.5747 7.63021 30.0653 7.63021 29.4259C7.63021 28.7409 7.80401 28.1954 8.15161 27.7894C8.49921 27.3835 8.96607 27.1805 9.55217 27.1805Z"/>
<path d="M12.262 27.2985L12.9128 27.2985L12.9128 28.0025C12.966 27.8655 13.0967 27.6987 13.3048 27.5021C13.5128 27.3054 13.7526 27.2071 14.0241 27.2071C14.0368 27.2071 14.0583 27.2084 14.0888 27.2109C14.1192 27.2135 14.1712 27.2185 14.2448 27.2261L14.2448 27.9493C14.2042 27.9417 14.1668 27.9366 14.1325 27.934C14.0983 27.9315 14.0609 27.9302 14.0203 27.9302C13.6752 27.9302 13.4101 28.0412 13.2248 28.2632C13.0396 28.4853 12.947 28.7409 12.947 29.0301L12.947 31.3745L12.262 31.3745L12.262 27.2985Z"/>
<path d="M14.8576 25.7837L15.5426 25.7837L15.5426 31.3745L14.8576 31.3745L14.8576 25.7837Z"/>
<path d="M17.0041 29.3841C17.0041 29.8205 17.0967 30.1858 17.2819 30.4802C17.4671 30.7745 17.764 30.9216 18.1725 30.9216C18.4896 30.9216 18.7503 30.7853 18.9546 30.5125C19.1588 30.2398 19.2609 29.8484 19.2609 29.3384C19.2609 28.8233 19.1556 28.4421 18.9451 28.1947C18.7345 27.9474 18.4744 27.8237 18.1649 27.8237C17.8198 27.8237 17.5401 27.9556 17.3257 28.2195C17.1113 28.4834 17.0041 28.8716 17.0041 29.3841ZM18.0355 27.2261C18.3475 27.2261 18.6089 27.2921 18.8195 27.4241C18.9412 27.5002 19.0795 27.6334 19.2343 27.8237L19.2343 25.7647L19.8927 25.7647L19.8927 31.3745L19.2762 31.3745L19.2762 30.8075C19.1163 31.0587 18.9273 31.2401 18.7091 31.3517C18.4909 31.4633 18.241 31.5192 17.9593 31.5192C17.5052 31.5192 17.1119 31.3282 16.7795 30.9464C16.4471 30.5645 16.2809 30.0564 16.2809 29.4221C16.2809 28.8284 16.4325 28.314 16.7357 27.8789C17.0389 27.4437 17.4722 27.2261 18.0355 27.2261Z"/>
<path d="M21.221 27.2985L22.005 30.5106L22.8004 27.2985L23.5692 27.2985L24.3684 30.4916L25.2019 27.2985L25.887 27.2985L24.7033 31.3745L23.9916 31.3745L23.162 28.2195L22.3589 31.3745L21.6472 31.3745L20.4712 27.2985L21.221 27.2985Z"/>
<path d="M26.534 27.3175L27.2304 27.3175L27.2304 31.3745L26.534 31.3745L26.534 27.3175ZM26.534 25.7837L27.2304 25.7837L27.2304 26.5601L26.534 26.5601L26.534 25.7837Z"/>
<path d="M28.6995 29.3841C28.6995 29.8205 28.7921 30.1858 28.9773 30.4802C29.1625 30.7745 29.4594 30.9216 29.8679 30.9216C30.1851 30.9216 30.4458 30.7853 30.65 30.5125C30.8543 30.2398 30.9564 29.8484 30.9564 29.3384C30.9564 28.8233 30.8511 28.4421 30.6405 28.1947C30.4299 27.9474 30.1698 27.8237 29.8603 27.8237C29.5152 27.8237 29.2355 27.9556 29.0211 28.2195C28.8067 28.4834 28.6995 28.8716 28.6995 29.3841ZM29.7309 27.2261C30.043 27.2261 30.3043 27.2921 30.5149 27.4241C30.6367 27.5002 30.775 27.6334 30.9297 27.8237L30.9297 25.7647L31.5882 25.7647L31.5882 31.3745L30.9716 31.3745L30.9716 30.8075C30.8118 31.0587 30.6227 31.2401 30.4045 31.3517C30.1863 31.4633 29.9364 31.5192 29.6548 31.5192C29.2006 31.5192 28.8073 31.3282 28.475 30.9464C28.1426 30.5645 27.9764 30.0564 27.9764 29.4221C27.9764 28.8284 28.128 28.314 28.4312 27.8789C28.7344 27.4437 29.1676 27.2261 29.7309 27.2261Z"/>
<path d="M34.2979 27.2071C34.5872 27.2071 34.8675 27.275 35.139 27.4107C35.4105 27.5465 35.6173 27.7222 35.7594 27.9378C35.8964 28.1434 35.9877 28.3831 36.0334 28.6572C36.074 28.8449 36.0943 29.1443 36.0943 29.5553L33.1067 29.5553C33.1194 29.9689 33.2171 30.3007 33.3997 30.5506C33.5824 30.8005 33.8653 30.9255 34.2485 30.9255C34.6062 30.9255 34.8916 30.8075 35.1048 30.5715C35.2266 30.4345 35.3128 30.2759 35.3636 30.0958L36.0372 30.0958C36.0195 30.2455 35.9605 30.4123 35.8602 30.5962C35.76 30.7802 35.6477 30.9305 35.5234 31.0472C35.3154 31.2502 35.0578 31.3872 34.7508 31.4583C34.5859 31.4989 34.3994 31.5192 34.1914 31.5192C33.6839 31.5192 33.2539 31.3346 32.9012 30.9654C32.5485 30.5962 32.3722 30.0793 32.3722 29.4145C32.3722 28.7599 32.5498 28.2284 32.905 27.8199C33.2602 27.4114 33.7245 27.2071 34.2979 27.2071ZM35.3902 29.0111C35.3623 28.7142 35.2976 28.477 35.1961 28.2994C35.0084 27.9696 34.695 27.8046 34.2561 27.8046C33.9414 27.8046 33.6776 27.9182 33.4644 28.1453C33.2513 28.3723 33.1384 28.661 33.1257 29.0111L35.3902 29.0111Z"/>
<path d="M39.5348 29.3841C39.5348 29.8205 39.6274 30.1858 39.8126 30.4802C39.9979 30.7745 40.2947 30.9216 40.7032 30.9216C41.0204 30.9216 41.2811 30.7853 41.4853 30.5125C41.6896 30.2398 41.7917 29.8484 41.7917 29.3384C41.7917 28.8233 41.6864 28.4421 41.4758 28.1947C41.2652 27.9474 41.0051 27.8237 40.6956 27.8237C40.3505 27.8237 40.0708 27.9556 39.8564 28.2195C39.642 28.4834 39.5348 28.8716 39.5348 29.3841ZM40.5662 27.2261C40.8783 27.2261 41.1396 27.2921 41.3502 27.4241C41.472 27.5002 41.6103 27.6334 41.765 27.8237L41.765 25.7647L42.4235 25.7647L42.4235 31.3745L41.8069 31.3745L41.8069 30.8075C41.6471 31.0587 41.458 31.2401 41.2398 31.3517C41.0216 31.4633 40.7717 31.5192 40.4901 31.5192C40.0359 31.5192 39.6426 31.3282 39.3103 30.9464C38.9779 30.5645 38.8117 30.0564 38.8117 29.4221C38.8117 28.8284 38.9633 28.314 39.2665 27.8789C39.5697 27.4437 40.0029 27.2261 40.5662 27.2261Z"/>
<path d="M43.4358 27.3175L44.1323 27.3175L44.1323 31.3745L43.4358 31.3745L43.4358 27.3175ZM43.4358 25.7837L44.1323 25.7837L44.1323 26.5601L43.4358 26.5601L43.4358 25.7837Z"/>
<path d="M45.5747 30.0958C45.595 30.3241 45.6521 30.4992 45.746 30.621C45.9185 30.8417 46.2179 30.9521 46.6442 30.9521C46.8979 30.9521 47.1212 30.8969 47.314 30.7865C47.5068 30.6762 47.6032 30.5055 47.6032 30.2746C47.6032 30.0996 47.5259 29.9664 47.3711 29.875C47.2721 29.8192 47.0768 29.7545 46.785 29.6809L46.2407 29.5439C45.8931 29.4577 45.6369 29.3612 45.472 29.2547C45.1776 29.0695 45.0305 28.8132 45.0305 28.4859C45.0305 28.1002 45.1694 27.7881 45.4472 27.5496C45.7251 27.3111 46.0987 27.1919 46.568 27.1919C47.1821 27.1919 47.6248 27.372 47.8963 27.7323C48.0663 27.9607 48.1488 28.2068 48.1437 28.4707L47.4967 28.4707C47.484 28.3159 47.4294 28.1751 47.333 28.0482C47.1757 27.8681 46.903 27.778 46.5148 27.778C46.256 27.778 46.06 27.8275 45.9268 27.9264C45.7936 28.0254 45.727 28.156 45.727 28.3184C45.727 28.496 45.8145 28.6381 45.9896 28.7447C46.091 28.8081 46.2407 28.8639 46.4387 28.9121L46.8915 29.0225C47.3838 29.1418 47.7136 29.2572 47.8811 29.3689C48.1475 29.5439 48.2807 29.8192 48.2807 30.1947C48.2807 30.5576 48.143 30.8709 47.8678 31.1348C47.5925 31.3986 47.1732 31.5306 46.6099 31.5306C46.0035 31.5306 45.5741 31.3929 45.3216 31.1176C45.0692 30.8424 44.9341 30.5017 44.9163 30.0958L45.5747 30.0958Z"/>
<path d="M49.5899 30.2899C49.5899 30.4878 49.6622 30.6438 49.8068 30.758C49.9515 30.8722 50.1227 30.9293 50.3206 30.9293C50.5617 30.9293 50.7951 30.8734 51.0209 30.7618C51.4015 30.5766 51.5918 30.2734 51.5918 29.8522L51.5918 29.3003C51.5081 29.3536 51.4002 29.398 51.2683 29.4336C51.1364 29.4691 51.007 29.4944 50.8801 29.5097L50.4653 29.563C50.2166 29.5959 50.0301 29.6479 49.9058 29.719C49.6952 29.8382 49.5899 30.0285 49.5899 30.2899ZM51.2493 28.9045C51.4066 28.8842 51.5119 28.8183 51.5652 28.7066C51.5956 28.6457 51.6108 28.5582 51.6108 28.444C51.6108 28.2106 51.5277 28.0412 51.3615 27.9359C51.1954 27.8306 50.9575 27.778 50.6479 27.778C50.2902 27.778 50.0365 27.8744 49.8868 28.0672C49.803 28.1738 49.7485 28.3324 49.7231 28.543L49.0837 28.543C49.0964 28.0406 49.2594 27.6911 49.5728 27.4945C49.8861 27.2978 50.2496 27.1995 50.6632 27.1995C51.1427 27.1995 51.5322 27.2908 51.8316 27.4735C52.1284 27.6562 52.2769 27.9404 52.2769 28.326L52.2769 30.6743C52.2769 30.7453 52.2914 30.8024 52.3206 30.8455C52.3498 30.8887 52.4113 30.9102 52.5052 30.9102C52.5357 30.9102 52.5699 30.9083 52.608 30.9045C52.646 30.9007 52.6866 30.895 52.7298 30.8874L52.7298 31.3936C52.6232 31.424 52.542 31.443 52.4862 31.4507C52.4304 31.4583 52.3542 31.4621 52.2578 31.4621C52.0219 31.4621 51.8506 31.3784 51.744 31.2109C51.6882 31.1221 51.6489 30.9965 51.626 30.8341C51.4865 31.0168 51.2861 31.1754 51.0247 31.3098C50.7634 31.4443 50.4754 31.5116 50.1608 31.5116C49.7827 31.5116 49.4738 31.3967 49.2341 31.1671C48.9943 30.9375 48.8744 30.6502 48.8744 30.3051C48.8744 29.927 48.9924 29.634 49.2284 29.4259C49.4643 29.2179 49.7739 29.0898 50.157 29.0415L51.2493 28.9045Z"/>
<path d="M53.3463 25.7647L54.0123 25.7647L54.0123 27.7932C54.162 27.5979 54.3409 27.4488 54.549 27.346C54.757 27.2433 54.9828 27.1919 55.2264 27.1919C55.7339 27.1919 56.1455 27.3663 56.4614 27.7152C56.7773 28.0641 56.9352 28.5785 56.9352 29.2585C56.9352 29.9029 56.7792 30.4383 56.4671 30.8646C56.155 31.2908 55.7224 31.5039 55.1693 31.5039C54.8598 31.5039 54.5984 31.4291 54.3853 31.2794C54.2584 31.1906 54.1227 31.0485 53.9781 30.8531L53.9781 31.3745L53.3463 31.3745L53.3463 25.7647ZM55.1274 30.8988C55.4979 30.8988 55.7751 30.7517 55.959 30.4573C56.143 30.163 56.235 29.7748 56.235 29.2927C56.235 28.8639 56.143 28.5087 55.959 28.2271C55.7751 27.9455 55.5042 27.8046 55.1465 27.8046C54.8344 27.8046 54.561 27.9201 54.3263 28.151C54.0916 28.3819 53.9743 28.7624 53.9743 29.2927C53.9743 29.6759 54.0225 29.9867 54.1189 30.2252C54.299 30.6743 54.6352 30.8988 55.1274 30.8988Z"/>
<path d="M57.7345 27.3175L58.4309 27.3175L58.4309 31.3745L57.7345 31.3745L57.7345 27.3175ZM57.7345 25.7837L58.4309 25.7837L58.4309 26.5601L57.7345 26.5601L57.7345 25.7837Z"/>
<path d="M59.4852 25.7837L60.1702 25.7837L60.1702 31.3745L59.4852 31.3745L59.4852 25.7837Z"/>
<path d="M61.1978 27.3175L61.8943 27.3175L61.8943 31.3745L61.1978 31.3745L61.1978 27.3175ZM61.1978 25.7837L61.8943 25.7837L61.8943 26.5601L61.1978 26.5601L61.1978 25.7837Z"/>
<path d="M63.0665 26.1605L63.7592 26.1605L63.7592 27.2985L64.41 27.2985L64.41 27.8579L63.7592 27.8579L63.7592 30.5182C63.7592 30.6603 63.8074 30.7555 63.9038 30.8037C63.9571 30.8316 64.0459 30.8455 64.1702 30.8455C64.2032 30.8455 64.2387 30.8449 64.2768 30.8436C64.3148 30.8424 64.3592 30.8392 64.41 30.8341L64.41 31.3745C64.3313 31.3974 64.2495 31.4139 64.1645 31.424C64.0795 31.4342 63.9875 31.4392 63.8886 31.4392C63.5689 31.4392 63.3519 31.3574 63.2378 31.1938C63.1236 31.0301 63.0665 30.8176 63.0665 30.5563L63.0665 27.8579L62.5146 27.8579L62.5146 27.2985L63.0665 27.2985L63.0665 26.1605Z"/>
<path d="M67.6411 27.2985L68.3985 27.2985C68.3021 27.5598 68.0877 28.156 67.7553 29.0872C67.5067 29.7875 67.2986 30.3584 67.1312 30.7999C66.7353 31.8401 66.4563 32.4744 66.2939 32.7028C66.1315 32.9311 65.8524 33.0453 65.4566 33.0453C65.3602 33.0453 65.2859 33.0415 65.2339 33.0339C65.1819 33.0263 65.1179 33.0123 65.0417 32.992L65.0417 32.3679C65.161 32.4009 65.2473 32.4212 65.3005 32.4288C65.3538 32.4364 65.4008 32.4402 65.4414 32.4402C65.5682 32.4402 65.6615 32.4193 65.7211 32.3774C65.7807 32.3355 65.8308 32.2841 65.8714 32.2233C65.8841 32.203 65.9298 32.0989 66.0084 31.9112C66.0871 31.7234 66.1442 31.5839 66.1797 31.4925L64.6726 27.2985L65.449 27.2985L66.5412 30.6172L67.6411 27.2985Z"/>
<path d="M72.7296 27.1805C73.1888 27.1805 73.5624 27.2921 73.8504 27.5154C74.1384 27.7387 74.3116 28.1231 74.3699 28.6686L73.7039 28.6686C73.6633 28.4174 73.5707 28.2087 73.4261 28.0425C73.2814 27.8763 73.0493 27.7932 72.7296 27.7932C72.2932 27.7932 71.9811 28.0064 71.7933 28.4326C71.6716 28.7092 71.6107 29.0504 71.6107 29.4564C71.6107 29.8649 71.6969 30.2087 71.8695 30.4878C72.042 30.7669 72.3135 30.9064 72.6839 30.9064C72.9681 30.9064 73.1933 30.8195 73.3595 30.6457C73.5257 30.4719 73.6405 30.2341 73.7039 29.9321L74.3699 29.9321C74.2938 30.4726 74.1035 30.8677 73.799 31.1176C73.4946 31.3676 73.1051 31.4925 72.6306 31.4925C72.0978 31.4925 71.6728 31.2978 71.3557 30.9083C71.0385 30.5189 70.8799 30.0323 70.8799 29.4488C70.8799 28.7333 71.0537 28.1763 71.4013 27.778C71.7489 27.3797 72.1917 27.1805 72.7296 27.1805Z"/>
<path d="M76.6725 30.9331C77.1266 30.9331 77.4381 30.7612 77.6068 30.4174C77.7755 30.0736 77.8599 29.6911 77.8599 29.2699C77.8599 28.8893 77.799 28.5798 77.6772 28.3413C77.4844 27.9658 77.152 27.778 76.6801 27.778C76.2614 27.778 75.957 27.9378 75.7667 28.2575C75.5764 28.5772 75.4812 28.9629 75.4812 29.4145C75.4812 29.8484 75.5764 30.2099 75.7667 30.4992C75.957 30.7884 76.2589 30.9331 76.6725 30.9331ZM76.6991 27.1805C77.2243 27.1805 77.6683 27.3555 78.0312 27.7057C78.394 28.0558 78.5754 28.5709 78.5754 29.2509C78.5754 29.908 78.4156 30.451 78.0959 30.8798C77.7762 31.3086 77.2801 31.523 76.6078 31.523C76.047 31.523 75.6018 31.3333 75.2719 30.954C74.9421 30.5747 74.7771 30.0653 74.7771 29.4259C74.7771 28.7409 74.9509 28.1954 75.2986 27.7894C75.6462 27.3835 76.113 27.1805 76.6991 27.1805Z"/>
<path d="M79.3899 27.2985L80.0407 27.2985L80.0407 27.877C80.2335 27.6384 80.4377 27.4672 80.6534 27.3632C80.8691 27.2591 81.1088 27.2071 81.3727 27.2071C81.9512 27.2071 82.3419 27.4088 82.5449 27.8123C82.6566 28.033 82.7124 28.3489 82.7124 28.7599L82.7124 31.3745L82.0159 31.3745L82.0159 28.8056C82.0159 28.5569 81.9791 28.3565 81.9055 28.2043C81.7838 27.9505 81.563 27.8237 81.2433 27.8237C81.0809 27.8237 80.9477 27.8402 80.8437 27.8731C80.6559 27.929 80.491 28.0406 80.3489 28.2081C80.2348 28.3425 80.1605 28.4814 80.1263 28.6248C80.092 28.7682 80.0749 28.973 80.0749 29.2395L80.0749 31.3745L79.3899 31.3745L79.3899 27.2985Z"/>
<path d="M83.8618 26.1605L84.5544 26.1605L84.5544 27.2985L85.2052 27.2985L85.2052 27.8579L84.5544 27.8579L84.5544 30.5182C84.5544 30.6603 84.6026 30.7555 84.699 30.8037C84.7523 30.8316 84.8411 30.8455 84.9655 30.8455C84.9984 30.8455 85.034 30.8449 85.072 30.8436C85.1101 30.8424 85.1545 30.8392 85.2052 30.8341L85.2052 31.3745C85.1266 31.3974 85.0447 31.4139 84.9597 31.424C84.8748 31.4342 84.7828 31.4392 84.6838 31.4392C84.3641 31.4392 84.1472 31.3574 84.033 31.1938C83.9188 31.0301 83.8618 30.8176 83.8618 30.5563L83.8618 27.8579L83.3099 27.8579L83.3099 27.2985L83.8618 27.2985L83.8618 26.1605Z"/>
<path d="M87.5877 27.2071C87.8769 27.2071 88.1573 27.275 88.4288 27.4107C88.7003 27.5465 88.9071 27.7222 89.0492 27.9378C89.1862 28.1434 89.2775 28.3831 89.3232 28.6572C89.3638 28.8449 89.3841 29.1443 89.3841 29.5553L86.3965 29.5553C86.4092 29.9689 86.5068 30.3007 86.6895 30.5506C86.8722 30.8005 87.1551 30.9255 87.5382 30.9255C87.896 30.9255 88.1814 30.8075 88.3945 30.5715C88.5163 30.4345 88.6026 30.2759 88.6533 30.0958L89.327 30.0958C89.3092 30.2455 89.2502 30.4123 89.15 30.5962C89.0498 30.7802 88.9375 30.9305 88.8132 31.0472C88.6051 31.2502 88.3476 31.3872 88.0406 31.4583C87.8757 31.4989 87.6892 31.5192 87.4811 31.5192C86.9737 31.5192 86.5436 31.3346 86.1909 30.9654C85.8383 30.5962 85.6619 30.0793 85.6619 29.4145C85.6619 28.7599 85.8395 28.2284 86.1948 27.8199C86.55 27.4114 87.0143 27.2071 87.5877 27.2071ZM88.68 29.0111C88.6521 28.7142 88.5874 28.477 88.4859 28.2994C88.2981 27.9696 87.9848 27.8046 87.5458 27.8046C87.2312 27.8046 86.9673 27.9182 86.7542 28.1453C86.5411 28.3723 86.4282 28.661 86.4155 29.0111L88.68 29.0111Z"/>
<path d="M90.2252 27.2985L90.876 27.2985L90.876 27.877C91.0688 27.6384 91.2731 27.4672 91.4887 27.3632C91.7044 27.2591 91.9442 27.2071 92.208 27.2071C92.7865 27.2071 93.1773 27.4088 93.3802 27.8123C93.4919 28.033 93.5477 28.3489 93.5477 28.7599L93.5477 31.3745L92.8512 31.3745L92.8512 28.8056C92.8512 28.5569 92.8144 28.3565 92.7408 28.2043C92.6191 27.9505 92.3983 27.8237 92.0786 27.8237C91.9162 27.8237 91.783 27.8402 91.679 27.8731C91.4913 27.929 91.3263 28.0406 91.1842 28.2081C91.0701 28.3425 90.9959 28.4814 90.9616 28.6248C90.9274 28.7682 90.9102 28.973 90.9102 29.2395L90.9102 31.3745L90.2252 31.3745L90.2252 27.2985Z"/>
<path d="M94.6971 26.1605L95.3897 26.1605L95.3897 27.2985L96.0405 27.2985L96.0405 27.8579L95.3897 27.8579L95.3897 30.5182C95.3897 30.6603 95.4379 30.7555 95.5344 30.8037C95.5876 30.8316 95.6764 30.8455 95.8008 30.8455C95.8338 30.8455 95.8693 30.8449 95.9073 30.8436C95.9454 30.8424 95.9898 30.8392 96.0405 30.8341L96.0405 31.3745C95.9619 31.3974 95.8801 31.4139 95.7951 31.424C95.7101 31.4342 95.6181 31.4392 95.5191 31.4392C95.1994 31.4392 94.9825 31.3574 94.8683 31.1938C94.7542 31.0301 94.6971 30.8176 94.6971 30.5563L94.6971 27.8579L94.1452 27.8579L94.1452 27.2985L94.6971 27.2985L94.6971 26.1605Z"/>
    <path
    d="M2.35859 34.6804L95.6414 34.6804L2.35859 34.6804Z"
    fill="none"
    opacity="1"
    stroke="#f2f2f2"
    stroke-linecap="butt"
    stroke-linejoin="round"
    stroke-width="1.5"
  />
</g>
</svg>

